<?xml version="1.0" encoding="UTF-8"?>
<svg id="Laag_2" data-name="Laag 2" xmlns="http://www.w3.org/2000/svg" viewBox="0 0 67.34 65.63">
  <defs>
    <style>
      .cls-1 {
        fill: #fff;
        stroke-miterlimit: 10;
        stroke-width: .25px;
      }

      .cls-1, .cls-2 {
        stroke: #fff;
      }

      .cls-2 {
        fill: none;
        stroke-linecap: round;
        stroke-linejoin: round;
      }
    </style>
  </defs>
  <g id="txt">
    <g>
      <g>
        <path class="cls-2" d="M28.16,17.45c-1.52,2.02-3.05,4.04-4.57,6.06-1.57,2.26-1.24,5.19.54,6.77,1.37,1.22,3.46,1.51,5.11.72,2.15-1.03,3.27-3.76,2.38-6.36l-2.74-5.68"/>
        <path class="cls-2" d="M25.42,29.1c-.15-.05-.42-.17-.63-.42-.51-.62-.2-1.47-.19-1.52"/>
        <path class="cls-2" d="M39.83,11.28c-1.52,2.02-3.05,4.04-4.57,6.06-1.57,2.26-1.24,5.19.54,6.77,1.37,1.22,3.46,1.51,5.11.72,2.15-1.03,3.27-3.76,2.38-6.36l-2.74-5.68"/>
        <path class="cls-2" d="M37.09,22.94c-.15-.05-.42-.17-.63-.42-.51-.62-.2-1.47-.19-1.52"/>
        <path class="cls-2" d="M30.9.5c-1.52,2.02-3.05,4.04-4.57,6.06-1.57,2.26-1.24,5.19.54,6.77,1.37,1.22,3.46,1.51,5.11.72,2.15-1.03,3.27-3.76,2.38-6.36l-2.74-5.68"/>
        <path class="cls-2" d="M28.16,12.16c-.15-.05-.42-.17-.63-.42-.51-.62-.2-1.47-.19-1.52"/>
      </g>
      <g>
        <path class="cls-1" d="M6.09,44.04v3.03h-.51v-2.9l-1.07-1.16H.63v4.06H.12v-9.1h4.85l1.07,1.07v2.9l-.98.97,1.03,1.13ZM.63,42.55h4.13l.77-.77v-2.57l-.77-.77H.63v4.11Z"/>
        <path class="cls-1" d="M8.17,46.01v-4.34l1.07-1.07h3.04l1.08,1.07v2.29h-4.69v1.87l.79.79h2.59l.81-.78v-.64h.49v.79l-1.08,1.08h-3.03l-1.07-1.07ZM12.86,43.51v-1.68l-.78-.78h-2.64l-.78.78v1.68h4.2Z"/>
        <path class="cls-1" d="M20.48,40.6v8.25l-1.05,1.05h-3l-.86-.86v-.69h.49v.52l.57.57h2.59l.77-.77v-2.87l-1.4,1.26h-2.27l-1.07-1.07v-4.34l1.07-1.07h2.3l1.38,1.4v-1.4h.49ZM19.99,42.65l-1.57-1.6h-1.91l-.77.77v4.03l.77.77h1.91l1.57-1.43v-2.54Z"/>
        <path class="cls-1" d="M22.56,46.01v-4.34l1.07-1.07h3.04l1.08,1.07v2.29h-4.69v1.87l.79.79h2.59l.81-.78v-.64h.49v.79l-1.08,1.08h-3.03l-1.07-1.07ZM27.26,43.51v-1.68l-.78-.78h-2.64l-.78.78v1.68h4.2Z"/>
        <path class="cls-1" d="M29.76,40.6h.49v1.64l1.62-1.64h1.83l1.07,1.07v5.41h-.49v-5.24l-.77-.77h-1.44l-1.82,1.81v4.2h-.49v-6.47Z"/>
        <path class="cls-1" d="M36.28,40.6h.52l1.26,5.89h.03l1.81-5.89h.52l1.62,5.89h.03l1.38-5.89h.52l-1.59,6.47h-.58l-1.62-5.85h-.03l-1.81,5.85h-.58l-1.47-6.47Z"/>
        <path class="cls-1" d="M45.2,46.14v-1.74l.92-.9h3.58v-1.66l-.79-.78h-2.37l-.79.78v.65h-.49v-.82l1.07-1.07h2.81l1.07,1.07v5.41h-.49v-1.38l-1.4,1.38h-2.16l-.94-.94ZM48.13,46.62l1.56-1.55v-1.12h-3.38l-.62.6v1.44l.62.62h1.82Z"/>
        <path class="cls-1" d="M52.77,46.01v-4.97h-1.16v-.44h1.18v-2.11h.47v2.11h2.03v.46h-2.03v4.78l.78.78h1.25v.46h-1.46l-1.07-1.07Z"/>
        <path class="cls-1" d="M56.73,46.01v-4.34l1.07-1.07h3.04l1.08,1.07v2.29h-4.69v1.87l.79.79h2.59l.81-.78v-.64h.49v.79l-1.08,1.08h-3.03l-1.07-1.07ZM61.42,43.51v-1.68l-.78-.78h-2.64l-.78.78v1.68h4.2Z"/>
        <path class="cls-1" d="M63.93,40.6h.49v1.27l1.27-1.27h1.52v.46h-1.35l-1.44,1.43v4.59h-.49v-6.47Z"/>
        <path class="cls-1" d="M13.49,61.61v-4.34l1.07-1.07h3.11l1.07,1.07v4.34l-1.07,1.07h-3.11l-1.07-1.07ZM17.47,62.22l.77-.77v-4.03l-.77-.77h-2.72l-.77.77v4.03l.77.77h2.72Z"/>
        <path class="cls-1" d="M20.81,56.2h.49v1.34l1.33-1.34h2.35l1.07,1.07v4.34l-1.07,1.07h-2.47l-1.21-1.09v3.85h-.49v-9.23ZM24.79,62.22l.77-.77v-4.02l-.77-.78h-1.96l-1.52,1.52v2.77l1.38,1.27h2.11Z"/>
        <path class="cls-1" d="M27.22,56.2h.53l2.09,6.03h.05l2.07-6.03h.53l-2.26,6.47h-.73l-2.29-6.47Z"/>
        <path class="cls-1" d="M33.53,61.74v-1.74l.92-.9h3.58v-1.66l-.79-.78h-2.37l-.79.78v.65h-.49v-.82l1.07-1.07h2.81l1.07,1.07v5.41h-.49v-1.38l-1.4,1.38h-2.16l-.94-.94ZM36.47,62.22l1.56-1.55v-1.12h-3.38l-.62.6v1.44l.62.62h1.82Z"/>
        <path class="cls-1" d="M40.67,56.2h.49v1.64l1.62-1.64h1.83l1.07,1.07v5.41h-.49v-5.24l-.77-.77h-1.44l-1.82,1.81v4.2h-.49v-6.47Z"/>
        <path class="cls-1" d="M52.94,56.2v8.25l-1.05,1.05h-3l-.86-.86v-.69h.49v.52l.57.57h2.59l.77-.77v-2.87l-1.4,1.26h-2.27l-1.07-1.07v-4.34l1.07-1.07h2.3l1.38,1.4v-1.4h.49ZM52.45,58.25l-1.57-1.6h-1.91l-.77.77v4.03l.77.77h1.91l1.57-1.43v-2.54Z"/>
      </g>
    </g>
  </g>
</svg>