<?xml version="1.0" encoding="UTF-8"?>
<svg id="Laag_2" data-name="Laag 2" xmlns="http://www.w3.org/2000/svg" viewBox="0 0 79.48 98.43">
  <defs>
    <style>
      .cls-1 {
        fill: #fff;
        stroke-width: .25px;
      }

      .cls-1, .cls-2 {
        stroke: #fff;
        stroke-miterlimit: 10;
      }

      .cls-2 {
        fill: none;
        stroke-linecap: round;
      }
    </style>
  </defs>
  <g id="txt">
    <g>
      <g>
        <g>
          <polyline class="cls-2" points="28.82 38.44 28.82 33.94 22.28 33.94 26.43 25.9 24.25 25.9 28.49 18.17"/>
          <polyline class="cls-2" points="30.12 33.89 35.72 33.89 31.22 24.79 33.4 24.79 28.83 16.46"/>
        </g>
        <g>
          <polyline class="cls-2" points="44.37 45.49 44.37 40.99 37.83 40.99 41.98 32.94 39.8 32.94 44.04 25.21"/>
          <polyline class="cls-2" points="45.66 40.93 51.27 40.93 46.77 31.83 48.94 31.83 44.38 23.5"/>
        </g>
        <g>
          <polyline class="cls-2" points="41.37 22.49 41.37 17.99 34.83 17.99 38.98 9.94 36.8 9.94 41.04 2.21"/>
          <polyline class="cls-2" points="42.66 17.93 48.27 17.93 43.77 8.83 45.94 8.83 41.38 .5"/>
        </g>
      </g>
      <g>
        <path class="cls-1" d="M16.14,61.24v-6.97l1.07-1.07h3.42l1.07,1.07v.74h-.51v-.58l-.75-.75h-3.03l-.75.75v3.69l1.27-1.27h2.76l1.07,1.07v3.33l-1.07,1.07h-3.47l-1.07-1.07ZM20.48,61.83l.75-.77v-2.99l-.77-.77h-2.33l-1.5,1.51v2.25l.77.77h3.07Z"/>
        <path class="cls-1" d="M23.69,61.13v-6.76l1.17-1.17h3.52l1.17,1.17v6.76l-1.17,1.17h-3.52l-1.17-1.17ZM28.18,61.83l.87-.87v-6.42l-.87-.87h-3.11l-.87.87v6.42l.87.87h3.11Z"/>
        <path class="cls-1" d="M31.64,61.13v-6.76l1.17-1.17h3.52l1.17,1.17v6.76l-1.17,1.17h-3.52l-1.17-1.17ZM36.12,61.83l.87-.87v-6.42l-.87-.87h-3.11l-.87.87v6.42l.87.87h3.11Z"/>
        <path class="cls-1" d="M39.58,61.13v-6.76l1.17-1.17h3.52l1.17,1.17v6.76l-1.17,1.17h-3.52l-1.17-1.17ZM44.06,61.83l.87-.87v-6.42l-.87-.87h-3.11l-.87.87v6.42l.87.87h3.11Z"/>
        <path class="cls-1" d="M47.59,55.83h.49v1.42l1.42-1.42h1.47l1.04,1.05,1.05-1.05h1.98l1.07,1.07v5.41h-.49v-5.25l-.77-.77h-1.61l-1.07,1.07v4.95h-.49v-5.1l-.91-.92h-1.09l-1.59,1.57v4.45h-.49v-6.47Z"/>
        <path class="cls-1" d="M57.92,61.24v-.74h.51v.56l.78.78h2.98l.78-.78v-2.34l-.78-.75h-2.44v-.46h2.46l.77-.77v-2.29l-.78-.78h-2.9l-.78.78v.56h-.51v-.74l1.07-1.07h3.34l1.07,1.07v2.6l-.87.86.87.87v2.64l-1.07,1.07h-3.42l-1.07-1.07Z"/>
        <path class="cls-1" d="M.12,79v-6.5l1.3-1.3h3.76l1.25,1.25v.55h-.51v-.4l-.94-.92H1.65l-1.01,1.01v6.14l1.01,1.01h3.28l1-1v-2.61h-2.13v-.47h2.64v3.26l-1.29,1.29H1.42l-1.3-1.3Z"/>
        <path class="cls-1" d="M8.31,79.24v-4.34l1.07-1.07h3.04l1.08,1.07v2.29h-4.69v1.87l.79.79h2.59l.81-.78v-.64h.49v.79l-1.08,1.08h-3.03l-1.07-1.07ZM13.01,76.74v-1.68l-.78-.78h-2.64l-.78.78v1.68h4.2Z"/>
        <path class="cls-1" d="M15.39,79.24v-4.34l1.07-1.07h2.9l1.07,1.07v.53h-.49v-.38l-.77-.77h-2.5l-.78.78v4l.78.78h2.5l.77-.77v-.38h.49v.53l-1.07,1.07h-2.9l-1.07-1.07Z"/>
        <path class="cls-1" d="M22.11,79.24v-4.34l1.07-1.07h3.04l1.08,1.07v2.29h-4.69v1.87l.79.79h2.59l.81-.78v-.64h.49v.79l-1.08,1.08h-3.03l-1.07-1.07ZM26.8,76.74v-1.68l-.78-.78h-2.64l-.78.78v1.68h4.2Z"/>
        <path class="cls-1" d="M29.31,73.83h.49v1.27l1.27-1.27h1.52v.46h-1.35l-1.44,1.43v4.59h-.49v-6.47Z"/>
        <path class="cls-1" d="M34.67,79.24v-4.97h-1.16v-.44h1.18v-2.11h.47v2.11h2.03v.46h-2.03v4.78l.78.78h1.25v.46h-1.46l-1.07-1.07Z"/>
        <path class="cls-1" d="M38.88,72.27v-.42l.26-.26h.36l.26.26v.42l-.26.26h-.36l-.26-.26ZM39.07,73.83h.49v6.47h-.49v-6.47Z"/>
        <path class="cls-1" d="M46.72,80.3h-.49v-6.02h-3.25v6.02h-.49v-6.02h-1.16v-.46h1.16v-1.56l1.01-1.01h1.52v.44h-1.31l-.73.73v1.4h3.74v6.47Z"/>
        <path class="cls-1" d="M48.8,79.24v-4.34l1.07-1.07h2.9l1.07,1.07v.53h-.49v-.38l-.77-.77h-2.5l-.78.78v4l.78.78h2.5l.77-.77v-.38h.49v.53l-1.07,1.07h-2.9l-1.07-1.07Z"/>
        <path class="cls-1" d="M55.52,79.24v-4.34l1.07-1.07h3.04l1.08,1.07v2.29h-4.69v1.87l.79.79h2.59l.81-.78v-.64h.49v.79l-1.08,1.08h-3.03l-1.07-1.07ZM60.21,76.74v-1.68l-.78-.78h-2.64l-.78.78v1.68h4.2Z"/>
        <path class="cls-1" d="M62.59,79.24v-4.34l1.07-1.07h3.04l1.08,1.07v2.29h-4.69v1.87l.79.79h2.59l.81-.78v-.64h.49v.79l-1.08,1.08h-3.03l-1.07-1.07ZM67.28,76.74v-1.68l-.78-.78h-2.64l-.78.78v1.68h4.2Z"/>
        <path class="cls-1" d="M69.79,73.83h.49v1.27l1.27-1.27h1.52v.46h-1.35l-1.44,1.43v4.59h-.49v-6.47Z"/>
        <path class="cls-1" d="M74.12,79.24v-4.34l1.07-1.07h2.38l1.3,1.12v-3.93h.49v9.28h-.49v-1.39l-1.38,1.39h-2.3l-1.07-1.07ZM77.32,79.85l1.55-1.56v-2.73l-1.47-1.27h-2.02l-.77.77v4.03l.77.77h1.94Z"/>
        <path class="cls-1" d="M27.08,89.2h.51v4.33h5.19v-4.33h.51v9.1h-.51v-4.3h-5.19v4.3h-.51v-9.1Z"/>
        <path class="cls-1" d="M35.43,97.24v-4.34l1.07-1.07h3.11l1.07,1.07v4.34l-1.07,1.07h-3.11l-1.07-1.07ZM39.4,97.85l.77-.77v-4.03l-.77-.77h-2.72l-.77.77v4.03l.77.77h2.72Z"/>
        <path class="cls-1" d="M42.68,97.24v-5.41h.49v5.25l.77.77h1.44l1.81-1.82v-4.2h.49v6.47h-.49v-1.62l-1.62,1.62h-1.82l-1.07-1.07Z"/>
        <path class="cls-1" d="M50.47,97.24v-4.97h-1.16v-.44h1.18v-2.11h.47v2.11h2.03v.46h-2.03v4.78l.78.78h1.25v.46h-1.46l-1.07-1.07Z"/>
      </g>
    </g>
  </g>
</svg>