<?xml version="1.0" encoding="UTF-8"?>
<svg id="Laag_2" data-name="Laag 2" xmlns="http://www.w3.org/2000/svg" viewBox="0 0 107.23 68.61">
  <defs>
    <style>
      .cls-1, .cls-2 {
        fill: none;
      }

      .cls-1, .cls-2, .cls-3 {
        stroke: #fff;
        stroke-miterlimit: 10;
      }

      .cls-2 {
        stroke-linecap: round;
        stroke-width: 1.1px;
      }

      .cls-3 {
        fill: #fff;
        font-family: ChakraPetch-ExtraLight, 'Chakra Petch';
        font-size: 15px;
        font-weight: 200;
        stroke-width: .25px;
      }

      .cls-4 {
        letter-spacing: -.02em;
      }

      .cls-5 {
        letter-spacing: -.01em;
      }

      .cls-6 {
        letter-spacing: 0em;
      }
    </style>
  </defs>
  <g id="txt">
    <g>
      <g>
        <polyline class="cls-2" points="59.29 41.5 46.69 41.5 46.69 17.57 59.29 29.43"/>
        <g>
          <line class="cls-2" x1="70.9" y1="42.04" x2="70.9" y2="20.54"/>
          <line class="cls-2" x1="61.64" y1="20.54" x2="61.64" y2="42.04"/>
          <rect class="cls-2" x="60.16" y="14.6" width="12.61" height="5.93" rx="1.82" ry="1.82"/>
          <path class="cls-1" d="M66.09,13.12v-6.67c-.22-1.14-1.11-2.02-2.22-2.22-1.19-.22-2.4.39-2.97,1.48.08-3.03-2.48-5.39-5.19-5.19-2.47.18-4.54,2.45-4.45,5.19"/>
          <path class="cls-1" d="M62.39,7.93c-.35,2.43-2.24,4.26-4.45,4.45-1.72.15-3.42-.72-4.45-2.22-.95,1.21-1.82,1.43-2.22,1.48-2.12.27-4.79-2.3-5.93-6.67"/>
        </g>
        <line class="cls-2" x1="35.65" y1="31.55" x2="35.65" y2="40.04"/>
        <polyline class="cls-2" points="44.93 41.64 32.32 41.64 32.32 17.72 44.93 29.58"/>
        <line class="cls-2" x1="49.84" y1="31.56" x2="49.84" y2="40.06"/>
      </g>
      <text class="cls-3" transform="translate(.12 61.09)"><tspan x="0" y="0">0% CO2 ui</tspan><tspan class="cls-6" x="66.7" y="0">t</tspan><tspan x="72.22" y="0">s</tspan><tspan class="cls-4" x="79.65" y="0">t</tspan><tspan x="85.02" y="0">o</tspan><tspan class="cls-5" x="93.31" y="0">o</tspan><tspan x="101.38" y="0">t</tspan></text>
    </g>
  </g>
</svg>