<?xml version="1.0" encoding="UTF-8"?>
<svg id="Laag_2" data-name="Laag 2" xmlns="http://www.w3.org/2000/svg" viewBox="0 0 67.62 64.51">
  <defs>
    <style>
      .cls-1 {
        fill: none;
        stroke-linecap: round;
        stroke-width: 1.1px;
      }

      .cls-1, .cls-2 {
        stroke: #fff;
        stroke-miterlimit: 10;
      }

      .cls-2 {
        fill: #fff;
        stroke-width: .25px;
      }
    </style>
  </defs>
  <g id="txt">
    <g>
      <g>
        <path class="cls-1" d="M40.95,9.74c1.03,1.47,1.63,3.26,1.63,5.18,0,4.99-4.04,9.03-9.03,9.03s-9.03-4.04-9.03-9.03,4.04-9.03,9.03-9.03c2.02,0,3.89.66,5.39,1.78"/>
        <g>
          <path class="cls-1" d="M22.31,13.38l-2.95-.45"/>
          <path class="cls-1" d="M24.21,8.58l-2.46-1.68"/>
          <path class="cls-1" d="M27.99,5.06l-1.5-2.58"/>
          <path class="cls-1" d="M32.92,3.52l-.24-2.97"/>
          <path class="cls-1" d="M38.03,4.26l1.07-2.78"/>
          <path class="cls-1" d="M42.33,7.14l2.17-2.05"/>
          <path class="cls-1" d="M44.96,11.58l2.84-.92"/>
          <path class="cls-1" d="M45.42,16.72l2.96.4"/>
          <path class="cls-1" d="M43.61,21.56l2.49,1.64"/>
          <path class="cls-1" d="M39.89,25.15l1.54,2.55"/>
          <path class="cls-1" d="M34.99,26.78l.29,2.97"/>
          <path class="cls-1" d="M29.87,26.13l-1.02,2.8"/>
          <path class="cls-1" d="M25.52,23.34l-2.13,2.09"/>
          <path class="cls-1" d="M22.81,18.95l-2.82.97"/>
        </g>
      </g>
      <g>
        <path class="cls-2" d="M13.07,40.14l-2.04,1.08v-.47l1.95-1.07h.6v9.1h-.51v-8.64Z"/>
        <path class="cls-2" d="M19.91,40.78v-.62h-4.71v-.47h5.21v1.16l-3.48,7.94h-.52l3.5-8.01Z"/>
        <path class="cls-2" d="M22.11,47.62v-6.76l1.17-1.17h3.52l1.17,1.17v6.76l-1.17,1.17h-3.52l-1.17-1.17ZM26.59,48.32l.87-.87v-6.42l-.87-.87h-3.11l-.87.87v6.42l.87.87h3.11Z"/>
        <path class="cls-2" d="M30.05,47.62v-6.76l1.17-1.17h3.52l1.17,1.17v6.76l-1.17,1.17h-3.52l-1.17-1.17ZM34.53,48.32l.87-.87v-6.42l-.87-.87h-3.11l-.87.87v6.42l.87.87h3.11Z"/>
        <path class="cls-2" d="M41.02,42.31h.49v1.42l1.42-1.42h1.47l1.04,1.05,1.05-1.05h1.98l1.07,1.07v5.41h-.49v-5.25l-.77-.77h-1.61l-1.07,1.07v4.95h-.49v-5.1l-.91-.92h-1.09l-1.59,1.57v4.45h-.49v-6.47Z"/>
        <path class="cls-2" d="M51.41,47.28l4.76-5.07v-1.27l-.78-.78h-2.74l-.78.78v.56h-.51v-.74l1.07-1.07h3.18l1.07,1.07v1.62l-4.76,5.07v.87h4.81v.47h-5.32v-1.51Z"/>
        <path class="cls-2" d="M.13,63.81l5.08-8.06v-.03H.26v-.44h5.47v.57L.65,63.92v.03h5.08v.44H.21l-.08-.57Z"/>
        <path class="cls-2" d="M7.23,63.32v-4.34l1.07-1.07h3.11l1.07,1.07v4.34l-1.07,1.07h-3.11l-1.07-1.07ZM11.21,63.93l.77-.77v-4.03l-.77-.77h-2.72l-.77.77v4.03l.77.77h2.72Z"/>
        <path class="cls-2" d="M14.55,57.91h.49v1.64l1.62-1.64h1.83l1.07,1.07v5.41h-.49v-5.24l-.77-.77h-1.44l-1.82,1.81v4.2h-.49v-6.47Z"/>
        <path class="cls-2" d="M21.71,57.91h.49v1.64l1.62-1.64h1.83l1.07,1.07v5.41h-.49v-5.24l-.77-.77h-1.44l-1.82,1.81v4.2h-.49v-6.47Z"/>
        <path class="cls-2" d="M28.74,63.32v-4.34l1.07-1.07h3.04l1.08,1.07v2.29h-4.69v1.87l.79.79h2.59l.81-.78v-.64h.49v.79l-1.08,1.08h-3.03l-1.07-1.07ZM33.44,60.82v-1.68l-.78-.78h-2.64l-.78.78v1.68h4.2Z"/>
        <path class="cls-2" d="M35.82,63.32v-4.34l1.07-1.07h2.9l1.07,1.07v.53h-.49v-.38l-.77-.77h-2.5l-.78.78v4l.78.78h2.5l.77-.77v-.38h.49v.53l-1.07,1.07h-2.9l-1.07-1.07Z"/>
        <path class="cls-2" d="M42.54,63.32v-4.34l1.07-1.07h3.04l1.08,1.07v2.29h-4.69v1.87l.79.79h2.59l.81-.78v-.64h.49v.79l-1.08,1.08h-3.03l-1.07-1.07ZM47.23,60.82v-1.68l-.78-.78h-2.64l-.78.78v1.68h4.2Z"/>
        <path class="cls-2" d="M49.8,55.1h.49v9.28h-.49v-9.28Z"/>
        <path class="cls-2" d="M52.64,55.1h.49v9.28h-.49v-9.28Z"/>
        <path class="cls-2" d="M55.28,63.32v-4.34l1.07-1.07h3.04l1.08,1.07v2.29h-4.69v1.87l.79.79h2.59l.81-.78v-.64h.49v.79l-1.08,1.08h-3.03l-1.07-1.07ZM59.97,60.82v-1.68l-.78-.78h-2.64l-.78.78v1.68h4.2Z"/>
        <path class="cls-2" d="M62.48,57.91h.49v1.64l1.62-1.64h1.83l1.07,1.07v5.41h-.49v-5.24l-.77-.77h-1.44l-1.82,1.81v4.2h-.49v-6.47Z"/>
      </g>
    </g>
  </g>
</svg>