<?xml version="1.0" encoding="UTF-8"?>
<svg id="Laag_2" data-name="Laag 2" xmlns="http://www.w3.org/2000/svg" viewBox="0 0 76.46 67.09">
  <defs>
    <style>
      .cls-1 {
        fill: #fff;
        stroke-width: .25px;
      }

      .cls-1, .cls-2 {
        stroke: #fff;
        stroke-miterlimit: 10;
      }

      .cls-2 {
        fill: none;
        stroke-linecap: round;
      }
    </style>
  </defs>
  <g id="txt">
    <g>
      <g>
        <path class="cls-2" d="M44.55,23.11c1.3,1.42,2.09,3.31,2.09,5.39,0,4.42-3.58,8-8,8s-8-3.58-8-8c0-2.96,1.61-5.55,4-6.92V4.33c0-2.12,1.71-3.83,3.83-3.83h.34c2.12,0,3.83,1.71,3.83,3.83v17.25c.27.16.53.33.78.51"/>
        <path class="cls-2" d="M41.74,25.97c.89,1.09,1.18,2.62.62,4.02-.82,2.05-3.15,3.05-5.2,2.22s-3.05-3.15-2.22-5.2,3.15-3.05,5.2-2.22c.19.07.36.16.53.26"/>
        <polyline class="cls-2" points="38.64 24.01 38.64 5.5 38.64 24.17"/>
        <path class="cls-2" d="M51.69,9.07l-4.21,2.43c-.28.16-.28.56,0,.72l4.21,2.43c.28.16.62-.04.62-.36v-4.03"/>
      </g>
      <g>
        <path class="cls-1" d="M19.33,42.27h.51v4.32h2.54l2.31-4.32h.55l-2.43,4.54,2.61,4.56h-.55l-2.5-4.32h-2.54v4.32h-.51v-9.1Z"/>
        <path class="cls-1" d="M26.52,50.43v-1.74l.92-.9h3.58v-1.66l-.79-.78h-2.37l-.79.78v.65h-.49v-.82l1.07-1.07h2.81l1.07,1.07v5.41h-.49v-1.38l-1.4,1.38h-2.16l-.94-.94ZM29.46,50.91l1.56-1.55v-1.12h-3.38l-.62.6v1.44l.62.62h1.82Z"/>
        <path class="cls-1" d="M33.33,50.43v-.81h.49v.64l.65.65h2.59l.65-.65v-1.29l-.65-.65h-2.78l-.9-.9v-1.59l.95-.95h2.81l.94.94v.81h-.49v-.64l-.65-.65h-2.39l-.66.66v1.22l.66.65h2.7l.96.96v1.57l-.95.95h-2.99l-.94-.94Z"/>
        <path class="cls-1" d="M42.86,50.43v-1.74l.92-.9h3.58v-1.66l-.79-.78h-2.37l-.79.78v.65h-.49v-.82l1.07-1.07h2.81l1.07,1.07v5.41h-.49v-1.38l-1.4,1.38h-2.16l-.94-.94ZM45.8,50.91l1.56-1.55v-1.12h-3.38l-.62.6v1.44l.62.62h1.82Z"/>
        <path class="cls-1" d="M50.06,42.08h.49v9.28h-.49v-9.28Z"/>
        <path class="cls-1" d="M52.51,50.43v-.81h.49v.64l.65.65h2.59l.65-.65v-1.29l-.65-.65h-2.78l-.9-.9v-1.59l.95-.95h2.81l.94.94v.81h-.49v-.64l-.65-.65h-2.39l-.66.66v1.22l.66.65h2.7l.96.96v1.57l-.95.95h-2.99l-.94-.94Z"/>
        <path class="cls-1" d="M1.28,65.9v-4.97H.12v-.44h1.18v-2.11h.47v2.11h2.03v.46H1.78v4.78l.78.78h1.25v.46h-1.46l-1.07-1.07Z"/>
        <path class="cls-1" d="M5.56,57.68h.49v4.45l1.62-1.64h1.86l1.07,1.07v5.41h-.49v-5.25l-.77-.77h-1.47l-1.82,1.82v4.2h-.49v-9.28Z"/>
        <path class="cls-1" d="M12.62,65.9v-4.34l1.07-1.07h3.04l1.08,1.07v2.29h-4.69v1.87l.79.79h2.59l.81-.78v-.64h.49v.79l-1.08,1.08h-3.03l-1.07-1.07ZM17.31,63.4v-1.68l-.78-.78h-2.64l-.78.78v1.68h4.2Z"/>
        <path class="cls-1" d="M19.82,60.49h.49v1.27l1.27-1.27h1.52v.46h-1.35l-1.44,1.43v4.59h-.49v-6.47Z"/>
        <path class="cls-1" d="M24.6,60.49h.49v1.42l1.42-1.42h1.47l1.04,1.05,1.05-1.05h1.98l1.07,1.07v5.41h-.49v-5.25l-.77-.77h-1.61l-1.07,1.07v4.95h-.49v-5.1l-.91-.92h-1.09l-1.59,1.57v4.45h-.49v-6.47Z"/>
        <path class="cls-1" d="M35.13,65.9v-4.34l1.07-1.07h3.11l1.07,1.07v4.34l-1.07,1.07h-3.11l-1.07-1.07ZM39.11,66.51l.77-.77v-4.03l-.77-.77h-2.72l-.77.77v4.03l.77.77h2.72Z"/>
        <path class="cls-1" d="M42.45,65.9v-8.22h.49v4.38l1.55-1.57h2.11l1.07,1.07v4.34l-1.07,1.07h-3.08l-1.07-1.07ZM46.4,66.51l.77-.77v-4.03l-.77-.77h-1.72l-1.74,1.75v3.04l.77.77h2.69Z"/>
        <path class="cls-1" d="M49.68,65.9v-5.41h.49v5.25l.77.77h1.44l1.81-1.82v-4.2h.49v6.47h-.49v-1.62l-1.62,1.62h-1.82l-1.07-1.07Z"/>
        <path class="cls-1" d="M57.47,60.95h-1.16v-.46h1.16v-1.56l1.01-1.01h1.52v.44h-1.31l-.73.73v1.4h2.04v.46h-2.04v6.02h-.49v-6.02Z"/>
        <path class="cls-1" d="M62.13,60.95h-1.16v-.46h1.16v-1.56l1.01-1.01h1.52v.44h-1.31l-.73.73v1.4h2.04v.46h-2.04v6.02h-.49v-6.02Z"/>
        <path class="cls-1" d="M65.84,65.9v-4.34l1.07-1.07h3.04l1.08,1.07v2.29h-4.69v1.87l.79.79h2.59l.81-.78v-.64h.49v.79l-1.08,1.08h-3.03l-1.07-1.07ZM70.53,63.4v-1.68l-.78-.78h-2.64l-.78.78v1.68h4.2Z"/>
        <path class="cls-1" d="M73.04,60.49h.49v1.27l1.27-1.27h1.52v.46h-1.35l-1.44,1.43v4.59h-.49v-6.47Z"/>
      </g>
    </g>
  </g>
</svg>