<?xml version="1.0" encoding="UTF-8"?>
<svg id="Laag_2" xmlns="http://www.w3.org/2000/svg" xmlns:xlink="http://www.w3.org/1999/xlink" viewBox="0 0 99.82 38.84">
  <defs>
    <style>
      .cls-1 {
        fill: none;
      }

      .cls-1, .cls-2, .cls-3, .cls-4 {
        stroke: #1d1d1b;
        stroke-miterlimit: 10;
      }

      .cls-2 {
        fill: #3c3c3b;
      }

      .cls-5 {
        fill: #1d1d1b;
      }

      .cls-3 {
        fill: url(#Naamloos_verloop_3);
      }

      .cls-4 {
        fill: #925f36;
      }
    </style>
    <linearGradient id="Naamloos_verloop_3" data-name="Naamloos verloop 3" x1=".51" y1="18.74" x2="48.57" y2="18.74" gradientUnits="userSpaceOnUse">
      <stop offset=".4" stop-color="#73c9ea"/>
      <stop offset=".73" stop-color="#9ed7f0"/>
      <stop offset=".96" stop-color="#d5edf9"/>
      <stop offset=".97" stop-color="#dcf0fa"/>
      <stop offset=".99" stop-color="#f1f9fd"/>
      <stop offset="1" stop-color="#fff"/>
    </linearGradient>
  </defs>
  <g id="logo">
    <g>
      <g>
        <g>
          <path class="cls-3" d="M48.57,1.12c-.57-1.15-2.87-.34-2.87-.34L.95,9.33l-.44,27.65,48.07-.15V1.12"/>
          <line class="cls-1" x1="42.11" y1="1.43" x2="41.58" y2="36.82"/>
          <line class="cls-1" x1="37.39" y1="2.33" x2="36.88" y2="36.82"/>
          <line class="cls-1" x1="32.8" y1="3.18" x2="32.3" y2="36.82"/>
          <line class="cls-1" x1="23.48" y1="4.99" x2="23.01" y2="36.85"/>
          <line class="cls-1" x1="12.49" y1="7.16" x2="11.74" y2="36.88"/>
          <line class="cls-1" x1="14.12" y1="36.91" x2="14.89" y2="6.75"/>
          <line class="cls-1" x1="19.02" y1="5.95" x2="18.24" y2="36.88"/>
          <line class="cls-1" x1="10.53" y1="7.51" x2="9.79" y2="36.88"/>
          <polyline class="cls-1" points="2.47 9.06 5.96 8.39 5.18 37.02"/>
          <line class="cls-1" x1="2.35" y1="9.02" x2="1.63" y2="37.02"/>
          <line class="cls-1" x1="27.85" y1="4.14" x2="27.37" y2="36.85"/>
          <path class="cls-1" d="M.88,18.78l44.89-7.85s2.09-.68,2.79.29"/>
          <path class="cls-1" d="M.71,26.48l45.05-7.51s1.99-1.05,2.63-.05"/>
          <path class="cls-1" d="M.6,32.78l45.15-5.54s2.34-.65,2.84.54"/>
          <path class="cls-1" d="M48.56,34.97s.02.02.02.03"/>
          <path class="cls-1" d="M27.36,36.73l18.34-2.23s2.12-.49,2.86.47"/>
          <line class="cls-1" x1="23.43" y1="8.69" x2=".88" y2="12.68"/>
          <path class="cls-1" d="M.66,25.33l44.99-7.5s2.4-.18,2.93.31"/>
          <line class="cls-1" x1=".6" y1="25.34" x2=".66" y2="25.33"/>
        </g>
        <polygon class="cls-2" points=".95 9.33 2.35 9.06 2.26 12.44 .88 12.68 .95 9.33"/>
        <polygon class="cls-2" points="2.35 9.06 5.96 8.39 5.87 11.8 2.26 12.44 2.35 9.06"/>
        <polygon class="cls-2" points="10.53 7.51 10.44 10.99 5.87 11.8 5.96 8.39 10.53 7.51"/>
        <polygon class="cls-2" points="14.89 6.66 14.8 10.21 18.91 9.49 18.91 5.9 14.89 6.66"/>
        <path class="cls-2" d="M23.41,5.04c0,1.21,0,2.43,0,3.64l-4.5.8v-3.6c1.5-.28,3-.57,4.5-.85Z"/>
        <path class="cls-2" d="M.71,25.33l44.94-7.5s2.17-.52,2.86.28v1.15s-.52-.6-2.78-.13L5.49,25.7l-3.59.59-1.19.19s0-1.16,0-1.15Z"/>
        <path class="cls-2" d="M.6,32.78c15.02-2.15,30.03-4.3,45.05-6.45,0,0,2.17-.52,2.86.28v1.15s-.52-.6-2.78-.13c-15.04,2.22-30.09,4.43-45.13,6.65v-1.49Z"/>
        <polygon class="cls-4" points="10.53 7.51 12.49 7.12 12.4 10.64 10.44 10.99 10.53 7.51"/>
        <polygon class="cls-4" points="12.49 7.12 14.89 6.66 14.8 10.21 12.4 10.64 12.49 7.12"/>
        <polygon class="cls-4" points="10.44 10.99 12.4 10.64 12.25 16.79 10.29 17.14 10.44 10.99"/>
        <polygon class="cls-4" points="14.8 10.21 14.65 16.37 12.25 16.79 12.4 10.64 14.8 10.21"/>
        <polygon class="cls-4" points="10.29 17.14 12.25 16.79 12.08 23.41 10.16 23.75 10.29 17.14"/>
        <polygon class="cls-4" points="14.51 23.02 12.08 23.41 12.25 16.79 14.65 16.37 14.51 23.02"/>
        <polygon class="cls-4" points="10.09 24.95 12.05 24.63 11.88 31.16 9.93 31.44 10.09 24.95"/>
        <polygon class="cls-4" points="14.28 30.82 14.45 24.23 12.05 24.63 11.88 31.16 14.28 30.82"/>
        <polygon class="cls-4" points="9.79 36.95 9.9 32.9 11.85 32.61 11.74 36.91 9.79 36.95"/>
        <polygon class="cls-4" points="14.24 32.26 11.85 32.61 11.74 36.91 14.12 36.91 14.24 32.26"/>
        <polygon class="cls-4" points="23.1 30.96 18.35 31.67 18.24 36.88 23.01 36.9 23.1 30.96"/>
        <polygon class="cls-4" points="27.46 30.31 23.1 30.96 23.01 36.9 27.37 36.9 27.46 30.31"/>
        <polygon class="cls-4" points="18.57 23.56 18.41 30.22 23.1 29.56 23.22 22.8 18.57 23.56"/>
        <polygon class="cls-4" points="27.59 22.09 27.48 28.93 23.1 29.56 23.22 22.8 27.59 22.09"/>
        <polygon class="cls-4" points="5.32 32.1 5.49 25.7 1.91 26.28 1.74 32.61 5.32 32.1"/>
        <polygon class="cls-4" points=".6 32.78 1.74 32.61 1.91 26.28 .71 26.48 .6 32.78"/>
        <polygon class="cls-4" points="5.28 33.58 5.18 36.95 1.63 36.95 1.7 34.11 5.28 33.58"/>
      </g>
      <g>
        <path class="cls-5" d="M51.99,1.21c.41.08.61.12,1.02.2,1.05,4.23,1.57,6.32,2.63,10.44,0,0,0,0,.02,0,0-3.97,0-5.96-.01-9.93.44.08.66.13,1.1.21,0,5.82.01,8.73.02,14.56-.41-.05-.62-.07-1.03-.12-1.06-4.08-1.58-6.15-2.63-10.35,0,0-.01,0-.02,0,0,4.02,0,6.03,0,10.04-.44-.05-.66-.08-1.1-.13,0-5.97,0-8.95,0-14.92Z"/>
        <path class="cls-5" d="M57.68,14.88c0-.94,0-1.42,0-2.36.31-.72.46-1.08.77-1.79.85.13,1.27.19,2.12.31,0-.51,0-.77,0-1.28-.11-.27-.16-.4-.26-.67-.5-.08-.75-.12-1.26-.2-.1.24-.15.36-.25.6,0,.23,0,.35,0,.58-.44-.07-.65-.1-1.09-.17,0-.47,0-.71,0-1.18.36-.84.54-1.25.89-2.08.86.15,1.29.22,2.16.37.36.94.54,1.41.9,2.34.01,3.16.02,4.74.03,7.9-.4-.05-.6-.07-1-.12,0-.58,0-.87,0-1.45-.25.55-.37.82-.62,1.37-.64-.07-.96-.11-1.6-.18-.31-.79-.47-1.19-.78-1.99ZM59.98,14.97c.24-.53.36-.8.6-1.33,0-.27,0-.4,0-.67-.63-.09-.95-.13-1.58-.22-.09.21-.14.31-.23.52,0,.41,0,.62,0,1.03.08.22.13.33.21.54.4.05.6.08.99.13Z"/>
        <path class="cls-5" d="M62.94,15.34c0-2.29-.01-3.44-.02-5.74-.3-.05-.45-.07-.76-.12,0-.9,0-1.35,0-2.24.31.05.46.08.77.13,0-1.3,0-1.96-.01-3.26.44.08.65.12,1.09.2,0,1.3,0,1.94.01,3.24.51.09.76.13,1.27.22,0,.89,0,1.33.01,2.22-.51-.08-.77-.12-1.28-.2,0,1.93.01,2.89.02,4.82.12.28.17.42.29.7.4.05.6.08.99.13,0,.89,0,1.33.01,2.22-.61-.07-.91-.11-1.52-.18-.35-.86-.52-1.29-.87-2.15Z"/>
        <path class="cls-5" d="M65.95,15.66c-.01-3.11-.02-4.67-.04-7.78.44.08.66.11,1.11.19.01,2.77.02,4.16.04,6.93.12.28.17.42.29.7.27.03.4.05.67.09.33-.72.49-1.09.81-1.8-.01-2.24-.02-3.37-.03-5.61.44.08.66.11,1.11.19.02,3.86.04,5.79.06,9.64-.41-.05-.62-.07-1.03-.12,0-.66,0-.99,0-1.66-.29.63-.43.94-.71,1.57-.55-.06-.82-.1-1.37-.16-.36-.87-.54-1.3-.89-2.18Z"/>
        <path class="cls-5" d="M70.92,16.29c-.02-3.03-.03-4.54-.05-7.57.44.08.66.11,1.11.19.02,2.69.03,4.04.05,6.74.12.28.17.41.29.69.27.03.4.05.67.09.32-.7.49-1.05.81-1.75-.02-2.18-.03-3.27-.04-5.46.44.08.66.11,1.11.19.03,3.75.05,5.62.08,9.37-.41-.05-.62-.07-1.03-.12,0-.64,0-.97-.01-1.61-.28.61-.43.91-.71,1.53-.55-.06-.82-.1-1.37-.16-.36-.85-.54-1.27-.9-2.12Z"/>
        <path class="cls-5" d="M75.87,9.58c.41.07.61.1,1.02.17,0,.62,0,.93.01,1.54.26-.57.39-.86.66-1.43.48.08.71.12,1.19.2,0,.82.01,1.24.02,2.06-.39-.06-.58-.09-.96-.15-.32.69-.48,1.04-.8,1.73.02,2.13.03,3.19.05,5.32-.44-.05-.67-.08-1.11-.13-.03-3.73-.05-5.59-.08-9.32Z"/>
        <path class="cls-5" d="M79.3,6.2c.44.09.66.13,1.11.21.06,5.2.08,7.8.14,13.01-.44-.05-.67-.08-1.11-.13-.05-5.24-.08-7.86-.13-13.09Z"/>
        <path class="cls-5" d="M81.44,8.64c0-.46,0-.7-.01-1.16.15-.3.23-.46.38-.76.23.05.35.07.59.11.16.36.24.54.4.9,0,.46,0,.69.01,1.15-.15.3-.23.45-.38.76-.23-.04-.35-.06-.59-.1-.16-.36-.24-.54-.4-.9ZM81.58,10.55c.44.08.66.11,1.11.19.04,3.58.06,5.37.1,8.95-.44-.05-.67-.08-1.11-.13-.04-3.6-.06-5.41-.1-9.01Z"/>
        <path class="cls-5" d="M82.77,21.59c.39.04.58.06.97.1.11-.24.17-.36.29-.59-.05-4.06-.07-6.09-.12-10.15.44.08.66.11,1.11.19.05,4.32.08,6.48.14,10.79-.35.72-.53,1.08-.88,1.81-.59-.05-.89-.08-1.48-.14,0-.81-.01-1.21-.02-2.01ZM83.76,9.06c0-.46,0-.69-.01-1.14.15-.3.22-.45.37-.75.23.05.35.07.59.11.16.36.24.53.4.89,0,.45,0,.68.01,1.13-.15.3-.23.45-.38.75-.23-.04-.35-.06-.59-.1-.16-.35-.24-.53-.39-.89Z"/>
        <path class="cls-5" d="M86.05,7.51c.44.09.66.13,1.11.21.04,2.79.06,4.18.1,6.97.29.04.44.07.73.11.41-1.21.61-1.81,1.02-3,.49.08.73.12,1.22.21-.53,1.55-.8,2.34-1.33,3.92.62,1.87.93,2.8,1.55,4.64-.49-.06-.74-.09-1.23-.14-.49-1.46-.74-2.19-1.23-3.67-.28-.04-.42-.06-.71-.1.02,1.42.03,2.13.05,3.55-.44-.05-.67-.08-1.11-.13-.07-5.03-.1-7.54-.17-12.57Z"/>
        <path class="cls-5" d="M51.9,31.87v-10.02c.39-.95.58-1.42.97-2.36,1.21.12,1.82.18,3.03.3.39,1,.58,1.5.97,2.49,0,3.91,0,5.86.02,9.77-.39.94-.58,1.42-.97,2.37-1.22-.03-1.83-.04-3.05-.07-.39-.98-.58-1.48-.97-2.47ZM55.31,31.97c.17-.42.26-.63.43-1.05,0-3.06,0-4.59,0-7.65-.17-.44-.26-.66-.43-1.1-.73-.06-1.09-.09-1.82-.16-.17.42-.26.63-.43,1.04,0,3.1,0,4.66,0,7.76.17.44.26.66.43,1.1.73.03,1.1.04,1.83.06Z"/>
        <path class="cls-5" d="M57.85,24.16c.41.03.62.05,1.03.08,0,.68,0,1.02,0,1.71.28-.66.42-.99.7-1.65.54.04.81.06,1.36.1.38.93.57,1.4.94,2.32.01,3.13.02,4.7.03,7.83-.45-.01-.67-.02-1.12-.03,0-2.86-.01-4.29-.02-7.15-.12-.29-.17-.44-.29-.73-.28-.02-.43-.03-.71-.05-.32.77-.48,1.15-.8,1.92,0,2.38,0,3.58.01,5.96-.45-.01-.67-.02-1.12-.03,0-4.12-.01-6.18-.02-10.3Z"/>
        <path class="cls-5" d="M63.17,32.53c0-2.29-.01-3.44-.02-5.73-.3-.02-.46-.03-.76-.05,0-.9,0-1.34,0-2.24.31.02.47.04.78.06,0-1.3,0-1.95-.01-3.26.44.04.66.06,1.1.1,0,1.3,0,1.94.01,3.24.51.04.77.06,1.28.1,0,.89,0,1.33.01,2.22-.51-.03-.77-.05-1.28-.08,0,1.93.01,2.89.02,4.82.12.27.17.4.29.67.4.01.6.02,1,.03,0,.89,0,1.33.01,2.22-.61-.01-.92-.02-1.53-.03-.35-.82-.53-1.24-.88-2.07Z"/>
        <path class="cls-5" d="M66.04,32.7c0-.48,0-.72,0-1.21.44.02.66.03,1.1.04,0,.22,0,.33,0,.55.08.18.11.28.19.46.55.02.82.03,1.37.05.07-.18.11-.27.18-.44,0-.34,0-.5,0-.84-.08-.19-.12-.29-.2-.48-.73-.03-1.09-.05-1.82-.08-.32-.76-.48-1.15-.8-1.91,0-.86,0-1.29-.01-2.16.32-.74.48-1.11.79-1.84.88.07,1.32.1,2.19.17.33.79.5,1.18.83,1.96,0,.47,0,.71,0,1.18-.44-.03-.66-.04-1.1-.07,0-.22,0-.33,0-.55-.08-.18-.11-.28-.19-.46-.5-.03-.75-.05-1.25-.08-.07.18-.11.26-.18.44,0,.31,0,.46,0,.77.08.19.12.29.2.48.73.04,1.09.06,1.82.1.32.76.48,1.13.81,1.88,0,.88,0,1.31.01,2.19-.32.73-.48,1.1-.79,1.84-.93-.02-1.39-.03-2.32-.05-.33-.78-.5-1.17-.83-1.96Z"/>
        <path class="cls-5" d="M70.73,25.15c.41.03.62.05,1.03.08,0,.56,0,.84,0,1.4.24-.54.36-.81.61-1.35.65.05.98.08,1.64.13.35.81.53,1.22.89,2.03.02,2.18.03,3.28.05,5.46-.34.77-.51,1.16-.86,1.94-.65-.01-.98-.02-1.63-.04-.22-.41-.33-.62-.55-1.03.01,2.03.02,3.05.04,5.08h-1.12c-.04-5.48-.05-8.21-.09-13.69ZM73.53,32.69c.12-.26.17-.39.29-.65-.01-1.55-.02-2.32-.03-3.87-.12-.27-.18-.41-.3-.68-.38-.02-.57-.04-.95-.06-.27.6-.4.9-.66,1.51,0,.94,0,1.4.02,2.34.27.56.41.83.68,1.38.39.01.58.02.96.03Z"/>
        <path class="cls-5" d="M75.75,33.14c0-.86-.01-1.28-.02-2.14.31-.68.46-1.01.76-1.68.85.05,1.28.07,2.14.12,0-.46,0-.7-.01-1.16-.11-.24-.16-.35-.27-.59-.51-.03-.76-.05-1.27-.08-.1.22-.15.34-.25.56,0,.21,0,.31,0,.52-.44-.03-.66-.04-1.1-.06,0-.43,0-.64,0-1.07.35-.79.53-1.18.88-1.96.87.07,1.3.1,2.17.17.37.82.55,1.23.92,2.05.03,2.86.04,4.29.07,7.14-.4,0-.6-.01-1.01-.02,0-.52,0-.78-.01-1.31-.25.52-.37.77-.61,1.29-.64-.01-.96-.02-1.61-.04-.32-.69-.48-1.04-.79-1.74ZM78.06,33.03c.24-.5.36-.75.6-1.25,0-.24,0-.36,0-.61-.64-.03-.95-.04-1.59-.07-.09.2-.13.29-.22.49,0,.37,0,.56,0,.93.09.19.13.28.22.47.4.01.6.02,1,.03Z"/>
        <path class="cls-5" d="M80.66,25.91c.41.03.62.05,1.03.08,0,.6.01.9.02,1.5.27-.58.41-.87.68-1.45.54.04.81.06,1.36.1.38.82.58,1.23.96,2.05.03,2.75.05,4.13.09,6.88-.45-.01-.67-.02-1.12-.03-.03-2.51-.05-3.77-.08-6.28-.12-.26-.18-.39-.29-.64-.28-.02-.43-.03-.71-.05-.31.67-.47,1.01-.78,1.69.02,2.1.04,3.15.06,5.25-.45-.01-.67-.02-1.12-.03-.04-3.63-.06-5.44-.1-9.07Z"/>
        <path class="cls-5" d="M85.65,26.29c.41.03.62.05,1.03.08,0,.58.01.87.02,1.46.27-.56.41-.85.68-1.4.54.04.81.06,1.36.1.39.8.58,1.2.96,1.99.04,2.67.06,4,.1,6.67-.45-.01-.67-.02-1.12-.03-.03-2.44-.05-3.66-.09-6.09-.12-.25-.18-.37-.3-.63-.28-.02-.43-.03-.71-.05-.31.65-.47.98-.78,1.63.03,2.04.04,3.05.07,5.09-.45-.01-.67-.02-1.12-.03-.05-3.52-.07-5.28-.11-8.8Z"/>
        <path class="cls-5" d="M90.67,33.46c-.03-2-.05-3-.08-5,.34-.69.51-1.03.84-1.72.95.07,1.42.11,2.37.18.36.73.54,1.09.91,1.8.02,1.26.03,1.89.05,3.16-1.2-.05-1.81-.08-3.01-.14,0,.44.01.65.02,1.09.11.23.17.34.28.57.55.02.83.03,1.38.05.1-.21.15-.31.25-.51,0-.17,0-.26,0-.44.44.02.66.03,1.1.04,0,.43.01.65.02,1.09-.32.66-.48.99-.81,1.65-.97-.02-1.46-.03-2.43-.06-.35-.7-.53-1.06-.88-1.77ZM93.62,30.28c0-.39,0-.59-.02-.98-.12-.24-.18-.36-.3-.61-.53-.03-.79-.05-1.32-.09-.11.23-.17.35-.28.58,0,.39,0,.59.02.99.76.04,1.14.06,1.89.1Z"/>
        <path class="cls-5" d="M95.56,27.05c.41.03.62.05,1.03.08.01.55.02.82.03,1.37.27-.53.41-.79.68-1.32.54.04.81.06,1.36.1.39.75.58,1.12.97,1.87.05,2.5.07,3.75.12,6.26-.45-.01-.67-.02-1.12-.03-.04-2.29-.07-3.43-.11-5.72-.12-.23-.18-.35-.3-.59-.28-.02-.43-.03-.71-.05-.31.61-.46.91-.77,1.53.04,1.91.05,2.87.09,4.78-.45-.01-.67-.02-1.12-.03-.06-3.31-.09-4.96-.15-8.27Z"/>
      </g>
    </g>
  </g>
</svg>