<?xml version="1.0" encoding="UTF-8"?>
<svg id="Laag_2" xmlns="http://www.w3.org/2000/svg" viewBox="0 0 81.21 67">
  <defs>
    <style>
      .cls-1 {
        stroke-linejoin: round;
      }

      .cls-1, .cls-2 {
        fill: none;
        stroke: #fff;
        stroke-linecap: round;
      }

      .cls-2 {
        stroke-miterlimit: 10;
      }
    </style>
  </defs>
  <g id="txt">
    <g>
      <g>
        <path class="cls-1" d="M23.08,41h36.7"/>
        <polyline class="cls-1" points="54.72 2.24 54.72 41 28.14 41 28.14 .5 53.26 .5"/>
        <rect class="cls-1" x="35.73" y="32.14" width="11.39" height="8.86"/>
        <path class="cls-1" d="M33.2,32.14h16.45"/>
        <line class="cls-1" x1="31.94" y1="24.55" x2="36.77" y2="24.55"/>
        <line class="cls-1" x1="39.53" y1="24.55" x2="44.37" y2="24.55"/>
        <line class="cls-1" x1="47.12" y1="24.55" x2="51.96" y2="24.55"/>
        <line class="cls-1" x1="31.94" y1="18.22" x2="36.77" y2="18.22"/>
        <line class="cls-1" x1="39.53" y1="18.22" x2="44.37" y2="18.22"/>
        <line class="cls-1" x1="47.12" y1="18.22" x2="51.96" y2="18.22"/>
        <line class="cls-1" x1="31.94" y1="11.89" x2="36.77" y2="11.89"/>
        <line class="cls-1" x1="39.53" y1="11.89" x2="44.37" y2="11.89"/>
        <line class="cls-1" x1="47.12" y1="11.89" x2="51.96" y2="11.89"/>
        <line class="cls-1" x1="31.94" y1="6.83" x2="36.77" y2="6.83"/>
        <line class="cls-1" x1="39.53" y1="6.83" x2="44.37" y2="6.83"/>
        <line class="cls-1" x1="47.12" y1="6.83" x2="51.96" y2="6.83"/>
      </g>
      <g>
        <path class="cls-2" d="M13.39,55.21h5.16c.47,0,.66.6.28.87l-5.14,3.74,1.96,6.05c.14.45-.36.82-.74.54l-5.14-3.74-5.14,3.74c-.38.28-.89-.1-.74-.54l1.96-6.05-5.14-3.74c-.38-.28-.18-.87.28-.87h6.36s1.96-6.05,1.96-6.05c.14-.45.77-.45.92,0l1.66,5.1"/>
        <path class="cls-2" d="M33.95,55.21h5.16c.47,0,.66.6.28.87l-5.14,3.74,1.96,6.05c.14.45-.36.82-.74.54l-5.14-3.74-5.14,3.74c-.38.28-.89-.1-.74-.54l1.96-6.05-5.14-3.74c-.38-.28-.18-.87.28-.87h6.36s1.96-6.05,1.96-6.05c.14-.45.77-.45.92,0l1.66,5.1"/>
        <path class="cls-2" d="M54.51,55.21h5.16c.47,0,.66.6.28.87l-5.14,3.74,1.96,6.05c.14.45-.36.82-.74.54l-5.14-3.74-5.14,3.74c-.38.28-.89-.1-.74-.54l1.96-6.05-5.14-3.74c-.38-.28-.18-.87.28-.87h6.36s1.96-6.05,1.96-6.05c.14-.45.77-.45.92,0l1.66,5.1"/>
        <path class="cls-2" d="M75.06,55.21h5.16c.47,0,.66.6.28.87l-5.14,3.74,1.96,6.05c.14.45-.36.82-.74.54l-5.14-3.74-5.14,3.74c-.38.28-.89-.1-.74-.54l1.96-6.05-5.14-3.74c-.38-.28-.18-.87.28-.87h6.36s1.96-6.05,1.96-6.05c.14-.45.77-.45.92,0l1.66,5.1"/>
      </g>
    </g>
  </g>
</svg>