<?xml version="1.0" encoding="UTF-8"?>
<svg id="Laag_2" data-name="Laag 2" xmlns="http://www.w3.org/2000/svg" viewBox="0 0 54.6 68.6">
  <defs>
    <style>
      .cls-1, .cls-2 {
        fill: #fff;
        stroke-width: .5px;
      }

      .cls-1, .cls-2, .cls-3 {
        stroke: #fff;
      }

      .cls-1, .cls-3 {
        stroke-linecap: round;
        stroke-linejoin: round;
      }

      .cls-2 {
        stroke-miterlimit: 10;
      }

      .cls-3 {
        fill: none;
      }
    </style>
  </defs>
  <g id="design">
    <g>
      <g>
        <path class="cls-3" d="M23.25,22.72c1,1.33,1.59,2.99,1.59,4.78,0,4.42-3.58,8-8,8s-8-3.58-8-8,3.58-8,8-8c2.03,0,3.88.75,5.29,2"/>
        <circle class="cls-3" cx="39.83" cy="27.5" r="8"/>
        <line class="cls-3" x1="24.83" y1="27.5" x2="31.83" y2="27.5"/>
        <path class="cls-3" d="M14.83,21.5s-2,0-3,2"/>
        <path class="cls-3" d="M38.27,21.23s-2,0-3,2"/>
      </g>
      <path class="cls-3" d="M50.83,19c0,.22-.2.33-.58.34-2.24.13-10.78-2.84-21.42-2.84s-20.76,3.24-22.66,2.81c-.22-.05-.34-.15-.34-.31,0-.24.24-.53.7-.85,2.54-1.81,11.75-4.65,22.3-4.65,9.99,0,18.12,2.55,20.94,4.35.69.45,1.06.84,1.06,1.15Z"/>
      <path class="cls-3" d="M43.47,6.99c3.19,3.05,5.45,6.83,6.38,10.55.12.5.35.97.48,1.46"/>
      <path class="cls-3" d="M6.17,18.97c.1-.38.27-.75.36-1.14C8.49,9.54,16.59.56,27.87.5c5.42-.03,10.34,2.08,14.18,5.23"/>
      <path class="cls-3" d="M50.25,19.34c-2.24.13-10.78-2.84-21.42-2.84s-20.76,3.24-22.66,2.81"/>
      <path class="cls-1" d="M20.84,10.09v-.63h2.23v.39l1.42.48h7.13l1.48-.5v-1.55l-1.48-.48h-7.99l-2.73-.91v-1.89l2.73-.91h8.73l2.73.91v.64h-2.2v-.4l-1.48-.48h-6.8l-1.48.48v1.39l1.48.48h7.99l2.73.91v2.04l-2.79.93h-8.97l-2.73-.91Z"/>
      <path class="cls-2" d="M9.45,40.59h6.78v1.02h-5.64v3.69h5.21v1.02h-5.21v3.75h5.64v1.02h-6.78v-10.5Z"/>
      <path class="cls-2" d="M18.03,41.91v-.66l.45-.45h.66l.45.45v.66l-.45.45h-.66l-.45-.45ZM18.26,43.62h1.11v7.47h-1.11v-7.47Z"/>
      <path class="cls-2" d="M28.22,43.62v9.38l-1.37,1.36h-3.71l-1.15-1.15v-.92h1.11v.55l.52.53h2.73l.75-.74v-2.79l-1.38,1.25h-2.73l-1.38-1.38v-4.71l1.38-1.38h2.83l1.31,1.3v-1.3h1.08ZM27.11,46.18l-1.57-1.58h-2.06l-.75.74v4.02l.75.73h2.07l1.56-1.46v-2.46Z"/>
      <path class="cls-2" d="M30.32,49.71v-4.71l1.38-1.38h3.77l1.4,1.38v2.68h-5.43v1.68l.75.73h2.81l.75-.73v-.57h1.11v.92l-1.38,1.38h-3.77l-1.38-1.38ZM35.75,46.72v-1.38l-.75-.74h-2.82l-.75.74v1.38h4.32Z"/>
      <path class="cls-2" d="M38.88,43.62h1.08v1.59l1.59-1.59h2.29l1.38,1.38v6.09h-1.11v-5.75l-.75-.74h-1.51l-1.86,1.86v4.62h-1.11v-7.47Z"/>
      <path class="cls-2" d="M.25,54.59h6.78v1.02H1.39v3.69h5.21v1.02H1.39v3.75h5.64v1.02H.25v-10.5Z"/>
      <path class="cls-2" d="M8.9,57.62h1.08v1.33l1.33-1.33h1.94v.99h-1.65l-1.59,1.59v4.89h-1.11v-7.47Z"/>
      <path class="cls-2" d="M13.78,57.62h1.14l2.22,6.36h.06l2.22-6.36h1.14l-2.75,7.47h-1.29l-2.75-7.47Z"/>
      <path class="cls-2" d="M21.46,63.85v-1.9l1.23-1.21h3.99v-1.43l-.75-.73h-2.55l-.75.73v.62h-1.11v-.93l1.38-1.38h3.5l1.38,1.38v6.09h-1.06v-1.32l-1.38,1.32h-2.64l-1.23-1.23ZM25.1,64.13l1.58-1.51v-.92h-3.51l-.6.58v1.26l.6.58h1.94Z"/>
      <path class="cls-2" d="M29.95,57.62h1.08v1.33l1.33-1.33h1.94v.99h-1.65l-1.59,1.59v4.89h-1.11v-7.47Z"/>
      <path class="cls-2" d="M35.65,55.91v-.66l.45-.45h.66l.45.45v.66l-.45.45h-.66l-.45-.45ZM35.87,57.62h1.11v7.47h-1.11v-7.47Z"/>
      <path class="cls-2" d="M39.38,57.62h1.08v1.59l1.59-1.59h2.29l1.38,1.38v6.09h-1.11v-5.75l-.75-.74h-1.51l-1.86,1.86v4.62h-1.11v-7.47Z"/>
      <path class="cls-2" d="M54.35,57.62v9.38l-1.37,1.36h-3.71l-1.15-1.15v-.92h1.11v.55l.52.53h2.73l.75-.74v-2.79l-1.38,1.25h-2.73l-1.38-1.38v-4.71l1.38-1.38h2.83l1.31,1.3v-1.3h1.08ZM53.24,60.18l-1.57-1.58h-2.06l-.75.74v4.02l.75.73h2.07l1.56-1.46v-2.46Z"/>
    </g>
  </g>
</svg>