<?xml version="1.0" encoding="UTF-8"?>
<svg id="Laag_2" data-name="Laag 2" xmlns="http://www.w3.org/2000/svg" viewBox="0 0 52.07 65.05">
  <defs>
    <style>
      .cls-1 {
        fill: #fff;
        stroke-miterlimit: 10;
        stroke-width: .25px;
      }

      .cls-1, .cls-2 {
        stroke: #fff;
      }

      .cls-2 {
        fill: none;
        stroke-linecap: round;
        stroke-linejoin: round;
      }
    </style>
  </defs>
  <g id="design">
    <g>
      <g>
        <path class="cls-2" d="M36.58,14.91v12.81c0,.11,0,.22-.02.33-.16,3.04-2.68,5.45-5.76,5.45h-11.16c-3.19,0-5.78-2.59-5.78-5.78v-14.22h20.68"/>
        <path class="cls-2" d="M42.94,19.41v7.27c0,.75-.61,1.36-1.36,1.36h-5.02c.02-.11.02-.22.02-.33v-9.67h5c.75,0,1.36.61,1.36,1.36Z"/>
      </g>
      <path class="cls-2" d="M18.23,10.04c1.88-1.35,3.51-2.86,3.18-3.98-.42-1.42-3.76-1.22-3.98-2.39-.12-.62.67-1.6,3.98-3.18"/>
      <path class="cls-2" d="M23.81,10.2c1.88-1.35,3.51-2.86,3.18-3.98-.42-1.42-3.76-1.22-3.98-2.39-.12-.62.67-1.6,3.98-3.18"/>
      <path class="cls-2" d="M29.37,10.2c1.88-1.35,3.51-2.86,3.18-3.98-.42-1.42-3.76-1.22-3.98-2.39-.12-.62.67-1.6,3.98-3.18"/>
      <path class="cls-2" d="M14.44,37h20.5"/>
    </g>
    <g>
      <path class="cls-1" d="M11.45,50.25v-7.14l1.68-1.68h4.71l1.62,1.62v1.18h-1.44v-.67l-.87-.87h-3.33l-.93.93v6.12l.93.93h3.33l.87-.87v-.67h1.44v1.18l-1.62,1.62h-4.71l-1.68-1.68Z"/>
      <path class="cls-1" d="M20.88,50.65v-1.84l1.27-1.27h3.93v-1.26l-.66-.64h-2.45l-.65.64v.56h-1.4v-.92l1.46-1.46h3.62l1.46,1.46v6.01h-1.31v-1.23l-1.29,1.23h-2.71l-1.27-1.28ZM24.68,50.77l1.41-1.35v-.78h-3.28l-.52.53v1.09l.52.51h1.88Z"/>
      <path class="cls-1" d="M30.17,45.66h-1.35v-1.2h1.35v-1.61l1.38-1.38h2.35v1.19h-1.75l-.58.58v1.21h2.34v1.2h-2.34v6.27h-1.4v-6.27Z"/>
      <path class="cls-1" d="M34.5,50.5v-4.61l1.44-1.44h3.92l1.44,1.44v2.73h-5.4v1.44l.66.66h2.69l.66-.64v-.51h1.38v.93l-1.41,1.42h-3.94l-1.43-1.42ZM39.9,47.53v-1.22l-.67-.66h-2.65l-.68.66v1.22h4ZM38.42,41.19h1.54l-1.4,2.42h-1.27l1.12-2.42Z"/>
      <path class="cls-1" d="M.12,63.22v-1.63h1.4v1.15l.94.93h2.37l.81-.79v-8.45h1.44v8.91l-1.59,1.59H1.82l-1.69-1.71Z"/>
      <path class="cls-1" d="M8.96,63.65v-1.84l1.27-1.27h3.93v-1.26l-.66-.64h-2.45l-.65.64v.56h-1.4v-.92l1.46-1.46h3.62l1.46,1.46v6.01h-1.31v-1.23l-1.29,1.23h-2.71l-1.27-1.28ZM12.75,63.77l1.41-1.35v-.78h-3.28l-.52.53v1.09l.52.51h1.88Z"/>
      <path class="cls-1" d="M17.57,54.22h1.4v6.21h1.6l2.1-2.97h1.54l-2.5,3.6,2.66,3.87h-1.55l-2.26-3.27h-1.59v3.27h-1.4v-10.71Z"/>
      <path class="cls-1" d="M25.11,63.65v-1.84l1.27-1.27h3.93v-1.26l-.66-.64h-2.45l-.65.64v.56h-1.4v-.92l1.46-1.46h3.62l1.46,1.46v6.01h-1.31v-1.23l-1.29,1.23h-2.71l-1.27-1.28ZM28.91,63.77l1.41-1.35v-.78h-3.28l-.52.53v1.09l.52.51h1.88Z"/>
      <path class="cls-1" d="M33.72,57.46h1.33v1.3l1.29-1.3h2v1.21h-1.68l-1.55,1.56v4.7h-1.4v-7.47Z"/>
      <path class="cls-1" d="M40.29,63.5v-4.84h-1.35v-1.2h1.38v-2.43h1.37v2.43h2.32v1.21h-2.32v4.38l.67.66h1.65v1.21h-2.28l-1.44-1.42Z"/>
      <path class="cls-1" d="M45.36,63.65v-1.84l1.27-1.27h3.93v-1.26l-.66-.64h-2.45l-.65.64v.56h-1.4v-.92l1.46-1.46h3.62l1.46,1.46v6.01h-1.31v-1.23l-1.29,1.23h-2.71l-1.27-1.28ZM49.16,63.77l1.41-1.35v-.78h-3.28l-.52.53v1.09l.52.51h1.88Z"/>
    </g>
  </g>
</svg>