<?xml version="1.0" encoding="UTF-8"?>
<svg id="Laag_2" data-name="Laag 2" xmlns="http://www.w3.org/2000/svg" viewBox="0 0 49.34 56.77">
  <defs>
    <style>
      .cls-1, .cls-2, .cls-3 {
        stroke: #fff;
      }

      .cls-1, .cls-3 {
        fill: none;
        stroke-linejoin: round;
      }

      .cls-2 {
        fill: #fff;
        stroke-miterlimit: 10;
        stroke-width: .25px;
      }

      .cls-3 {
        stroke-linecap: round;
      }
    </style>
  </defs>
  <g id="design">
    <g>
      <path class="cls-3" d="M39.82,14.01v7.98c0,.83-.68,1.51-1.51,1.51H7.33c-.16,0-.46-.03-.77-.21-.05-.03-.17-.11-.29-.23-.37-.38-.43-.88-.44-1.07v-7.98c0-.83.68-1.51,1.51-1.51h30.98c.83,0,1.51.68,1.51,1.51Z"/>
      <polyline class="cls-3" points="36.82 2.21 36.82 12.5 8.82 12.5 8.82 .5 35.41 .5"/>
      <rect class="cls-3" x="11.82" y="6.5" width="9" height="6"/>
      <polyline class="cls-3" points="33.82 8.13 33.82 12.5 24.82 12.5 24.82 6.5 32.09 6.5"/>
      <path class="cls-3" d="M6.82,23.5v4"/>
      <path class="cls-3" d="M38.82,23.5v4"/>
      <path class="cls-1" d="M5.82,16.5h34"/>
    </g>
    <g>
      <path class="cls-2" d="M7.32,33.15h1.44v4.63h5.1v-4.63h1.44v10.5h-1.44v-4.61h-5.1v4.61h-1.44v-10.5Z"/>
      <path class="cls-2" d="M17.33,42.21v-4.59l1.44-1.44h3.99l1.42,1.44v4.59l-1.42,1.44h-3.99l-1.44-1.44ZM22.11,42.43l.67-.66v-3.72l-.67-.66h-2.71l-.68.66v3.72l.68.66h2.71Z"/>
      <path class="cls-2" d="M26.58,42.22v-4.84h-1.35v-1.2h1.38v-2.43h1.37v2.43h2.32v1.21h-2.32v4.38l.67.66h1.65v1.21h-2.28l-1.44-1.42Z"/>
      <path class="cls-2" d="M31.5,42.22v-4.61l1.44-1.44h3.92l1.44,1.44v2.73h-5.4v1.44l.66.66h2.69l.66-.64v-.51h1.38v.93l-1.41,1.42h-3.94l-1.43-1.42ZM36.9,39.25v-1.22l-.67-.66h-2.65l-.68.66v1.22h4Z"/>
      <path class="cls-2" d="M40.25,32.94h1.4v10.71h-1.4v-10.71Z"/>
      <path class="cls-2" d="M.12,45.94h1.4v6.21h1.6l2.1-2.97h1.54l-2.5,3.6,2.66,3.87h-1.55l-2.26-3.27h-1.59v3.27H.12v-10.71Z"/>
      <path class="cls-2" d="M7.67,55.37v-1.84l1.27-1.27h3.93v-1.26l-.66-.64h-2.45l-.65.64v.56h-1.4v-.92l1.46-1.46h3.62l1.46,1.46v6.01h-1.31v-1.23l-1.29,1.23h-2.71l-1.27-1.28ZM11.47,55.49l1.41-1.35v-.78h-3.28l-.52.53v1.09l.52.51h1.88Z"/>
      <path class="cls-2" d="M16.28,49.18h1.33v1.36l1.37-1.36h1.81l1.12,1.12,1.11-1.12h2.45l1.46,1.46v6.01h-1.4v-5.58l-.68-.67h-1.51l-.98.97v5.28h-1.35v-5.59l-.66-.66h-1.14l-1.55,1.54v4.71h-1.4v-7.47Z"/>
      <path class="cls-2" d="M28.8,55.22v-4.61l1.44-1.44h3.92l1.44,1.44v2.73h-5.4v1.44l.66.66h2.69l.66-.64v-.51h1.38v.93l-1.41,1.42h-3.94l-1.43-1.42ZM34.2,52.25v-1.22l-.67-.66h-2.65l-.68.66v1.22h4Z"/>
      <path class="cls-2" d="M37.47,49.18h1.33v1.3l1.29-1.3h2v1.21h-1.68l-1.55,1.56v4.7h-1.4v-7.47Z"/>
      <path class="cls-2" d="M42.77,55.34v-.93h1.4v.56l.51.5h2.64l.51-.5v-.99l-.51-.53h-3.23l-1.26-1.26v-1.71l1.29-1.3h3.65l1.31,1.3v.93h-1.4v-.55l-.51-.5h-2.43l-.51.5v.93l.51.53h3.19l1.29,1.29v1.74l-1.29,1.3h-3.85l-1.31-1.3Z"/>
    </g>
  </g>
</svg>